# xmcd CD database file
#
# Track frame offsets:
#	150
#	17055
#	36959
#	49052
#	61876
#	75794
#	85529
#	99431
#	129893
#	147210
#	170626
#	185728
#	196504
#	218359
#	246982
#	264358
#
# Disc length: 3708 seconds
#
# Revision: 0
# Processed by: cddbd v1.5.2PL0 Copyright (c) Steve Scherf et al.
# Submitted via: CDex 1.51
#
DISCID=c40e7a10
DTITLE=Chet Baker - I'll remember you
DYEAR=2013
DGENRE=Jazz
TTITLE0=Let's get lost
TTITLE1=Yesterdays (live)
TTITLE2=Look for the silver lining
TTITLE3=A dandy line
TTITLE4=That old feeling
TTITLE5=Come rain or come shine
TTITLE6=But not for me
TTITLE7=Picture of health
TTITLE8=Goodbye
TTITLE9=C.T.A.
TTITLE10=My buddy
TTITLE11=The noght we called it a day
TTITLE12=You don't know what love is
TTITLE13=The way you look tonight (live)
TTITLE14=Darn that dream
TTITLE15=Someone to watch over me
EXTD=YEAR: 2013
EXTT0=
EXTT1=
EXTT2=
EXTT3=
EXTT4=
EXTT5=
EXTT6=
EXTT7=
EXTT8=
EXTT9=
EXTT10=
EXTT11=
EXTT12=
EXTT13=
EXTT14=
EXTT15=
PLAYORDER=
